<?xml version="1.0" encoding="utf-8"?>
<!-- License: CC Attribution. Made by  Carol Liao: https://dribbble.com/thecarolizer -->
<svg version="1.1" id="Uploaded to svgrepo.com" xmlns="http://www.w3.org/2000/svg" xmlns:xlink="http://www.w3.org/1999/xlink" 
	 width="800px" height="800px" viewBox="0 0 32 32" xml:space="preserve">
<style type="text/css">
	.duotone_een{fill:#0B1719;}
	.duotone_twee{fill:#555D5E;}
</style>
<g>
	<g>
		<g>
			<path class="duotone_een" d="M20,10c4.418,0,8,3.582,8,8c0,1.368-0.345,2.654-0.95,3.78l0.945,3.359
				c0.046,0.33-0.239,0.612-0.568,0.563l-3.196-0.921C23.002,25.549,21.555,26,20,26c-4.418,0-8-3.582-8-8S15.582,10,20,10z"/>
		</g>
		<g>
			<path class="duotone_een" d="M20,10c4.418,0,8,3.582,8,8c0,1.368-0.345,2.654-0.95,3.78l0.945,3.359
				c0.046,0.33-0.239,0.612-0.568,0.563l-3.196-0.921C23.002,25.549,21.555,26,20,26c-4.418,0-8-3.582-8-8S15.582,10,20,10z"/>
		</g>
	</g>
	<g>
		<g>
			<path class="duotone_twee" d="M11,18c0-4.173,2.859-7.681,6.717-8.695C16.369,7.311,14.088,6,11.5,6C7.358,6,4,9.358,4,13.5
				c0,1.275,0.32,2.474,0.881,3.525L4.005,20.14c-0.046,0.33,0.239,0.612,0.568,0.563l2.952-0.851C8.678,20.575,10.038,21,11.5,21
				c0.008,0,0.016-0.001,0.025-0.001C11.191,20.059,11,19.053,11,18z"/>
		</g>
		<g>
			<path class="duotone_twee" d="M11,18c0-4.173,2.859-7.681,6.717-8.695C16.369,7.311,14.088,6,11.5,6C7.358,6,4,9.358,4,13.5
				c0,1.275,0.32,2.474,0.881,3.525L4.005,20.14c-0.046,0.33,0.239,0.612,0.568,0.563l2.952-0.851C8.678,20.575,10.038,21,11.5,21
				c0.008,0,0.016-0.001,0.025-0.001C11.191,20.059,11,19.053,11,18z"/>
		</g>
	</g>
</g>
</svg>